# xmcd
# 
# Track frame offsets:
#     150
#     7237
#     20088
#     48308
#     62038
#     81653
#     95819
#     112651
#     125938
#     147980
#     160964
#     175814
#     180690
#     192522
#     205307
#     217956
#     231094
#     244727
#     257499
#     270783
#     283822
#     294930
#     307739
#     318542
#     336307
# 
# Disc length: 4659
# 
# Revision: 0
# Processed by: cddbd v1.5.2PL0 Copyright (c) Steve Scherf et al.
# Submitted via: fre:ac v1.0.27
# 
DISCID=7a123119
DTITLE=Muddy Waters - Best Of 47-72
DYEAR=0
DGENRE=Blues
TTITLE0=T-Bone Walker1
TTITLE1=T-Bone Walker2
TTITLE2=T-Bone Walker3
TTITLE3=T-Bone Walker4
TTITLE4=T-Bone Walker5
TTITLE5=T-Bone Walker6
TTITLE6=T-Bone Walker7
TTITLE7=T-Bone Walker8
TTITLE8=T-Bone Walker9
TTITLE9=T-Bone Walker10
TTITLE10=T-Bone Walker11
TTITLE11=T-Bone Walker12
TTITLE12=Muddy Waters_Best of 47-72(1)
TTITLE13=Muddy Waters_Best of 47-72(2)
TTITLE14=Muddy Waters_Best of 47-72(3)
TTITLE15=Muddy Waters_Best of 47-72(4)
TTITLE16=Muddy Waters_Best of 47-72(5)
TTITLE17=Muddy Waters_Best of 47-72(6)
TTITLE18=Muddy Waters_Best of 47-72(7)
TTITLE19=Muddy Waters_Best of 47-72(8)
TTITLE20=Muddy Waters_Best of 47-72(9)
TTITLE21=Muddy Waters_Best of 47-72(10)
TTITLE22=Muddy Waters_Best of 47-72(11)
TTITLE23=Muddy Waters_Best of 47-72(12)
TTITLE24=Muddy Waters_Best of 47-72(13)
EXTD=
EXTT0=
EXTT1=
EXTT2=
EXTT3=
EXTT4=
EXTT5=
EXTT6=
EXTT7=
EXTT8=
EXTT9=
EXTT10=
EXTT11=
EXTT12=
EXTT13=
EXTT14=
EXTT15=
EXTT16=
EXTT17=
EXTT18=
EXTT19=
EXTT20=
EXTT21=
EXTT22=
EXTT23=
EXTT24=
PLAYORDER=
